<svg width="1352" height="338" viewBox="0 0 1352 338" fill="none" xmlns="http://www.w3.org/2000/svg">
<path opacity="0.2" d="M198.466 108.88H197.966V101.354C197.966 88.2836 184.186 78.4233 156.627 78.4233C129.068 78.4233 115.289 85.7612 115.059 100.437C115.059 116.03 132.054 123.826 166.043 124.056C221.85 124.056 262.04 133.457 286.384 152.031C310.498 170.834 322.67 197.434 322.67 232.06C322.67 265.309 309.12 291.221 282.021 309.795C254.691 328.598 214.501 338 161.22 338C53.5104 338 0 300.852 0 232.06V217.884H0.5M198.466 108.88V109.38H305.635V108.88M198.466 108.88V101.354C198.466 94.6126 194.9 88.7302 187.887 84.5576C180.891 80.3957 170.456 77.9233 156.627 77.9233C142.819 77.9233 132.387 79.7589 125.36 83.485C121.84 85.3519 119.163 87.6994 117.354 90.5371C115.543 93.3764 114.618 96.6796 114.559 100.429H114.559V100.437C114.559 104.432 115.65 107.948 117.841 110.967C120.028 113.981 123.291 116.473 127.595 118.462C136.191 122.434 149.023 124.441 166.04 124.556H166.043C221.816 124.556 261.867 133.956 286.078 152.426M198.466 108.88H305.635M305.635 108.88H306.135V101.354C306.135 33.7083 256.299 0 156.627 0C107.71 0 70.5052 8.94301 45.0131 26.829M305.635 108.88V101.354C305.635 67.6732 293.239 42.5009 268.477 25.7238C243.681 8.92305 206.422 0.5 156.627 0.5C107.759 0.5 70.6739 9.43603 45.3015 27.2375M45.0131 26.829C19.521 44.9444 6.88976 69.7096 6.88976 101.354M45.0131 26.829L45.3027 27.2366C45.3023 27.2369 45.3019 27.2372 45.3015 27.2375M45.0131 26.829L45.3003 27.2383C45.3007 27.2381 45.3011 27.2378 45.3015 27.2375M6.88976 101.354C7.11942 171.522 59.7112 206.607 165.125 206.607C197.966 206.607 214.501 215.32 214.501 232.977C214.501 250.634 196.817 259.577 161.45 259.577M6.88976 101.354L7.38975 101.353C7.38976 101.353 7.38976 101.353 7.38976 101.353M6.88976 101.354H7.38976C7.38976 101.354 7.38976 101.354 7.38976 101.353M161.45 259.577C125.853 259.806 108.169 250.634 108.169 232.06V217.884H107.669M161.45 259.577L161.453 260.077M161.45 259.577V260.077C161.451 260.077 161.452 260.077 161.453 260.077M107.669 217.884V217.384H0.5V217.884M107.669 217.884V232.06C107.669 236.786 108.795 240.938 111.067 244.496C113.338 248.053 116.734 250.989 121.231 253.314C130.21 257.956 143.628 260.191 161.453 260.077M107.669 217.884H0.5M0.5 217.884V232.06C0.5 266.305 13.8067 292.626 40.4962 310.411C67.2189 328.218 107.408 337.5 161.22 337.5C214.456 337.5 254.528 328.104 281.737 309.383L281.738 309.383C308.7 290.903 322.17 265.147 322.17 232.06C322.17 197.568 310.054 171.122 286.078 152.426M286.078 152.426C286.079 152.427 286.08 152.428 286.081 152.429L286.384 152.032L286.077 152.426C286.077 152.426 286.077 152.426 286.078 152.426ZM45.3015 27.2375C19.9448 45.2571 7.38996 69.8687 7.38976 101.353M7.38976 101.353C7.50433 136.292 20.6431 162.439 46.8403 179.877C73.0734 197.339 112.458 206.107 165.125 206.107C181.573 206.107 194.016 208.286 202.363 212.729C206.544 214.955 209.71 217.755 211.828 221.143C213.948 224.532 215.001 228.482 215.001 232.977C215.001 237.479 213.872 241.447 211.602 244.859C209.333 248.268 205.943 251.094 201.463 253.345C192.517 257.84 179.161 260.076 161.453 260.077M474.893 248.799V249.299H475.393H653.568V332.914H372.317V5.08616H474.893V248.799ZM761.887 332.914H654.804L785.083 5.08616H915.08L1045.59 332.914H938.503L922.089 288.525L921.968 288.199H921.62H778.543H778.193L778.073 288.527L761.887 332.914ZM805.403 213.542L805.155 214.215H805.872H894.291H895.007L894.76 213.542L854.34 103.704L854.219 103.377H853.871H846.292H845.943L845.823 103.704L805.403 213.542ZM1176.08 136.408L1176.21 136.709H1176.54H1184.12H1184.45L1184.58 136.408L1241.4 5.08616H1351.18L1238.79 225.182L1238.74 225.29V225.41V332.914H1122.15V225.41V225.289L1122.1 225.182L1009.48 5.08616H1119.26L1176.08 136.408Z" stroke="white"/>
</svg>
