<svg width="1352" height="338" viewBox="0 0 1352 338" fill="none" xmlns="http://www.w3.org/2000/svg">
<path opacity="0.4" d="M305.635 101.354V108.88H198.466V101.354C198.466 94.6126 194.9 88.7302 187.887 84.5576C180.891 80.3957 170.456 77.9233 156.627 77.9233C142.819 77.9233 132.387 79.7589 125.36 83.485C121.84 85.3519 119.163 87.6994 117.354 90.5371C115.543 93.3764 114.618 96.6796 114.559 100.429L114.559 100.429V100.437C114.559 104.432 115.65 107.948 117.841 110.967C120.028 113.981 123.291 116.473 127.595 118.462C136.191 122.434 149.023 124.441 166.04 124.556H166.043C221.816 124.556 261.867 133.956 286.078 152.426C310.054 171.122 322.17 197.568 322.17 232.06C322.17 265.147 308.7 290.903 281.738 309.383L281.737 309.383C254.528 328.104 214.456 337.5 161.22 337.5C107.408 337.5 67.2189 328.218 40.4962 310.411C13.8067 292.626 0.5 266.305 0.5 232.06V217.884H107.669V232.06C107.669 236.786 108.795 240.938 111.067 244.496C113.338 248.053 116.734 250.989 121.231 253.314C130.21 257.956 143.628 260.191 161.453 260.077C179.161 260.076 192.517 257.84 201.463 253.345C205.943 251.094 209.333 248.268 211.602 244.859C213.872 241.447 215.001 237.479 215.001 232.977C215.001 228.482 213.948 224.532 211.828 221.143C209.71 217.755 206.544 214.955 202.363 212.729C194.016 208.286 181.573 206.107 165.125 206.107C112.458 206.107 73.0734 197.339 46.8403 179.877C20.6431 162.439 7.50433 136.292 7.38976 101.353C7.38996 69.8686 19.9449 45.257 45.3017 27.2373C70.6741 9.43598 107.759 0.5 156.627 0.5C206.422 0.5 243.681 8.92305 268.477 25.7238C293.239 42.5009 305.635 67.6732 305.635 101.354ZM474.893 248.799V249.299H475.393H653.568V332.914H372.317V5.08616H474.893V248.799ZM761.887 332.914H654.804L785.083 5.08616H915.08L1045.59 332.914H938.503L922.089 288.525L921.968 288.199H921.62H778.543H778.193L778.073 288.527L761.887 332.914ZM805.403 213.542L805.155 214.215H805.872H894.291H895.007L894.76 213.542L854.34 103.704L854.219 103.377H853.871H846.292H845.943L845.823 103.704L805.403 213.542ZM1176.08 136.408L1176.21 136.709H1176.54H1184.12H1184.45L1184.58 136.408L1241.4 5.08616H1351.18L1238.79 225.182L1238.74 225.29V225.41V332.914H1122.15V225.41V225.289L1122.1 225.182L1009.48 5.08616H1119.26L1176.08 136.408Z" stroke="url(#paint0_linear_742_33)"/>
<defs>
<linearGradient id="paint0_linear_742_33" x1="676" y1="0" x2="676" y2="338" gradientUnits="userSpaceOnUse">
<stop stop-color="white"/>
<stop offset="1" stop-color="white" stop-opacity="0"/>
</linearGradient>
</defs>
</svg>
