<svg width="1352" height="338" viewBox="0 0 1352 338" fill="none" xmlns="http://www.w3.org/2000/svg">
<path d="M306.135 101.354V109.38H197.966V101.354C197.966 88.2836 184.186 78.4233 156.627 78.4233C129.068 78.4233 115.289 85.7612 115.059 100.437C115.059 116.03 132.054 123.826 166.043 124.056C221.85 124.056 262.04 133.457 286.384 152.031C310.498 170.834 322.67 197.434 322.67 232.06C322.67 265.309 309.12 291.221 282.021 309.795C254.691 328.598 214.501 338 161.22 338C53.5104 338 0 300.852 0 232.06V217.384H108.169V232.06C108.169 250.634 125.853 259.806 161.45 259.577C196.817 259.577 214.501 250.634 214.501 232.977C214.501 215.32 197.966 206.607 165.125 206.607C59.7112 206.607 7.11942 171.522 6.88976 101.354C6.88976 69.7096 19.521 44.9444 45.0131 26.829C70.5052 8.94301 107.71 0 156.627 0C256.299 0 306.135 33.7083 306.135 101.354Z" fill="url(#paint0_linear_742_34)"/>
<path d="M475.393 248.799H654.068V333.414H371.817V4.58616H475.393V248.799Z" fill="url(#paint1_linear_742_34)"/>
<path d="M784.743 4.58616H915.419L1046.32 333.414H938.155L921.62 288.699H778.543L762.237 333.414H654.068L784.743 4.58616ZM805.872 213.715H894.29L853.871 103.877H846.292L805.872 213.715Z" fill="url(#paint2_linear_742_34)"/>
<path d="M1176.54 136.209H1184.12L1241.08 4.58616H1352L1239.24 225.41V333.414H1121.65V225.41L1008.66 4.58616H1119.59L1176.54 136.209Z" fill="url(#paint3_linear_742_34)"/>
<defs>
<linearGradient id="paint0_linear_742_34" x1="694.31" y1="-306.375" x2="676.055" y2="337.502" gradientUnits="userSpaceOnUse">
<stop offset="0.127137" stop-color="#535353"/>
<stop offset="1"/>
</linearGradient>
<linearGradient id="paint1_linear_742_34" x1="694.31" y1="-306.375" x2="676.055" y2="337.502" gradientUnits="userSpaceOnUse">
<stop offset="0.127137" stop-color="#535353"/>
<stop offset="1"/>
</linearGradient>
<linearGradient id="paint2_linear_742_34" x1="694.31" y1="-306.375" x2="676.055" y2="337.502" gradientUnits="userSpaceOnUse">
<stop offset="0.127137" stop-color="#535353"/>
<stop offset="1"/>
</linearGradient>
<linearGradient id="paint3_linear_742_34" x1="694.31" y1="-306.375" x2="676.055" y2="337.502" gradientUnits="userSpaceOnUse">
<stop offset="0.127137" stop-color="#535353"/>
<stop offset="1"/>
</linearGradient>
</defs>
</svg>
