<?xml version="1.0" encoding="utf-8"?>
<svg viewBox="0 0 81.8 14.8" xmlns="http://www.w3.org/2000/svg">
  <radialGradient id="A" cx="4.252" cy="5.806" r="3.019" gradientUnits="userSpaceOnUse">
    <stop offset="0" stop-color="#fff" stop-opacity=".4"/>
    <stop offset="0.158" stop-color="#fff" stop-opacity=".4"/>
    <stop offset="0.815" stop-color="#fff" stop-opacity="0"/>
  </radialGradient>
  <g fill="#141414">
    <path d="M16.6 12.4V3.7h3.1c2.2-.2 4.2 1.4 4.4 3.6V8c0 2.7-1.6 4.4-4.5 4.4h-3zm2.9-1.1c2.1 0 3.2-1.2 3.2-3.2 0-2.1-1.1-3.2-3.1-3.2H18v6.4h1.5zm5.2-2.1c-.1-1.8 1.3-3.3 3.1-3.4s3.3 1.3 3.4 3.1v.3c.1 1.8-1.3 3.3-3.1 3.4s-3.3-1.3-3.4-3.1v-.3zm5.1 0c0-1.3-.6-2.3-1.9-2.3S26 8 26 9.2c0 1.3.6 2.3 1.9 2.3s1.9-1.1 1.9-2.3h0zm3.6 3.2H32V5.9h1.3V7h.1c.4-.8 1.2-1.2 2.1-1.2 1.2-.1 2.3.8 2.4 2v.4 4.2h-1.4v-4c.1-.8-.5-1.4-1.2-1.5H35c-.8-.1-1.6.6-1.6 1.4v.2 3.9zm5.3-1.8c0-1.5 1.4-1.8 2.7-2 1.3-.1 1.8-.1 1.8-.6h0c0-.7-.4-1.2-1.3-1.2-.7-.1-1.3.3-1.6.9L39 7.4c.5-1.1 1.7-1.8 2.9-1.7 1.1 0 2.7.4 2.7 2.3v4.4h-1.3v-.9h-.1c-.4.7-1.2 1.1-2.1 1-1.4.1-2.4-.6-2.4-1.9zm4.4-.5v-.9c-.5.2-1.1.3-1.7.4-.8.1-1.4.3-1.4 1 0 .6.6 1 1.3 1 .9.1 1.7-.6 1.8-1.5h0 0z" style="fill: rgb(255, 255, 255);"/>
    <path d="M48.7 6.9h-1.4v3.6c0 .7.4.9.8.9.2 0 .3 0 .5-.1l.2 1.1c-.3.1-.6.1-.9.1-1 .1-1.9-.5-2-1.5v-.2-3.9h-1v-1h1V4.3h1.4v1.6h1.4v1z" style="fill: rgb(255, 255, 255);"/>
    <path d="M49 9.2c-.1-1.8 1.3-3.3 3.1-3.4s3.3 1.3 3.4 3.1v.3c.1 1.8-1.3 3.3-3.1 3.4-1.9 0-3.4-1.4-3.4-3.2 0 0 0-.1 0-.2zm5.1 0c0-1.3-.6-2.3-1.9-2.3S50.3 8 50.3 9.2c0 1.3.6 2.3 1.9 2.3s1.9-1.1 1.9-2.3h0z" style="fill: rgb(255, 255, 255);"/>
    <path d="M59.4 12.4H58l-2.5-6.6H57l1.8 5h.1l1.8-5h1.5l-2.8 6.6zm2.4-.7c0-.5.4-.9.9-1s.9.4 1 .9c0 .5-.4.9-.9 1h-.1c-.5-.1-.9-.4-.9-.9zm4.3.7h-1.4V5.9H66V7h.1c.4-.8 1.2-1.2 2.1-1.2 1.2-.1 2.3.8 2.4 2v.4 4.2h-1.4v-4c.1-.8-.5-1.4-1.2-1.5h-.3c-.8-.1-1.6.6-1.6 1.4v.2 3.9zm5.3-3.2c-.1-1.7 1.1-3.3 2.9-3.4h.4c1.6-.1 3 1.2 3.1 2.8v.5.5h-5c-.1 1 .7 1.9 1.7 2h.2c.7.1 1.3-.3 1.6-.9l1.3.2c-.4 1.2-1.6 1.9-2.9 1.8-1.7.1-3.2-1.2-3.3-2.9v-.6zm5-.6c0-.9-.7-1.7-1.6-1.7h-.2a1.86 1.86 0 0 0-1.9 1.7h3.7z" style="fill: rgb(255, 255, 255);"/>
    <path d="M48.7 6.9h-1.4v3.6c0 .7.4.9.8.9.2 0 .3 0 .5-.1l.2 1.1c-.3.1-.6.1-.9.1-1 .1-1.9-.5-2-1.5v-.2-3.9h-1v-1h1V4.3h1.4v1.6h1.4v1z" transform="matrix(1, 0, 0, 1, 33, 0)" style="fill: rgb(255, 255, 255);"/>
  </g>
  <path d="M0 8.1l1.9-4.7 4.7-2 4.8 1.9 2 4.7-2 4.7-4.7 2L2 12.8z" fill="#0d6efd"/>
  <path d="M6.7 7.9L1.9 3.4 0 8.1z" fill="#00a4ff"/>
  <path d="M6.8 8l-.2-6.6-4.7 2z" fill="#2cafff"/>
  <path d="M6.7 8.1v6.6l4.7-2z" fill="#2463ed"/>
  <path d="M10.6 8.1L9.4 5.3 6.7 4.2 4 5.3 2.8 8l1.1 2.8 2.7 1.1 2.8-1.1z" fill="#1099ff"/>
  <circle cx="4.3" cy="5.8" r="3" opacity=".63" fill="url(#A)"/>
  <path d="M6.1 1.6L10.6 0l3.8 1.4 2.1 4.8-2.4.7-.4.2-1.5-1.2z" fill="#f93d46"/>
  <path d="M12 8.9L5.4 3.3c-.6-.5-.7-1.3-.2-1.9h0c.5-.6 1.3-.6 1.9-.2l6.6 5.6c.6.5.6 1.3.2 1.9h0c-.5.6-1.3.6-1.9.2z" fill="#e6f6ff"/>
  <path d="M10.6 0l1.8 1.6L9.2 3 7.1 1.3z" opacity=".1" fill="#fff"/>
  <path d="M14.4 1.4l-2 .2 2.7 4 1.1-.1z" fill="#e52336"/>
  <circle cx="15.8" cy="6.7" r="1.4" fill="#e6f6ff"/>
  <circle cx="15.7" cy="6.1" r=".9" opacity=".6" fill="#fff"/>
  <circle cx="15.4" cy="7.4" r=".5" opacity=".05" fill="#1099ff"/>
  <path d="M10.5 6L6.1 2.3a.67.67 0 0 1-.1-1h0a.67.67 0 0 1 1-.1l4.4 3.7c.3.3.3.7.1 1h0c-.3.3-.7.4-1 .1z" opacity=".6" fill="#fff"/>
  <path d="M12.8 8l-.8-.7c-.3-.3-.3-.7-.1-1h0c.3-.3.7-.3 1-.1l.8.7c.3.3.3.7.1 1h0c-.3.3-.7.3-1 .1z" opacity=".05" fill="#1099ff"/>
  <path d="M8.9 7.7H7.5l1.2-1.2-.5-.5L7 7.2V5.8h-.7v1.4L5.1 6l-.5.5 1.2 1.2H4.5v.7h1.3L4.6 9.6l.5.5 1.2-1.2v1.3H7V8.9l1.2 1.2.3-.3.2-.2-1.2-1.2h1.4z" opacity=".4" fill="#fff"/>
</svg>