<svg width="14" height="12" viewBox="0 0 14 12" fill="none" xmlns="http://www.w3.org/2000/svg">
<path d="M12.0461 10.3681C12.2717 9.67586 13.3288 2.77666 13.4595 1.41719C13.4989 1.00546 13.3688 0.73186 13.1139 0.609727C12.8056 0.46146 12.3491 0.535595 11.8195 0.726528C11.0931 0.988395 1.80667 4.93133 1.27014 5.15959C0.76134 5.37559 0.280273 5.61133 0.280273 5.95266C0.280273 6.19266 0.422674 6.32759 0.815207 6.46786C1.22374 6.61346 2.25254 6.92546 2.86001 7.09293C3.44507 7.25453 4.11121 7.11426 4.48454 6.88226C4.88027 6.63639 9.44721 3.58039 9.77521 3.31266C10.1027 3.04493 10.364 3.38786 10.0963 3.65613C9.82854 3.92386 6.69361 6.96653 6.28027 7.38786C5.77841 7.89933 6.13467 8.42946 6.47121 8.64173C6.85574 8.88386 9.62107 10.7388 10.0376 11.0364C10.4541 11.334 10.8765 11.4689 11.2632 11.4689C11.6499 11.4689 11.8536 10.9596 12.0461 10.3681Z" fill="white"/>
</svg>
