<svg width="16" height="8" viewBox="0 0 16 8" fill="none" xmlns="http://www.w3.org/2000/svg">
<path d="M15.0686 7.12092C15.028 7.05638 14.78 6.67825 13.587 5.61905C12.3374 4.51078 12.5043 4.68998 14.0099 2.77318C14.9262 1.60518 15.2878 0.528914 15.2014 0.214781C15.1422 0.000226411 14.8043 0.000299223 14.4394 0.000377833L14.4184 0.000380848C14.0451 0.000380848 12.3443 0.013714 12.1747 0.013714C12.0051 0.013714 12.0088 0.0121145 11.8851 0.0830479C11.764 0.152381 11.6862 0.292648 11.6862 0.292648C11.6862 0.292648 11.3091 1.56838 10.835 2.33745C9.83656 3.95878 9.2755 3.83505 9.11176 3.73371C8.73203 3.49905 8.80136 2.79131 8.80136 2.28785C8.80136 0.716647 8.98323 0.269181 8.24776 0.0995813C8.00456 0.0435813 7.82483 0.00624751 7.20136 0.000380848C6.4003 -0.00708582 5.93576 0.0318474 5.59443 0.183847C5.33896 0.303847 5.13843 0.513981 5.25843 0.529448C5.4067 0.548648 5.74643 0.671848 5.92403 0.903315C6.15443 1.20251 6.1347 1.87398 6.1347 1.87398C6.1347 1.87398 6.2787 3.43771 5.8371 3.66705C5.5347 3.82545 5.1203 3.78811 4.22963 2.31718C3.77363 1.56358 3.41576 0.381714 3.41576 0.381714C3.41576 0.381714 3.34963 0.222781 3.2307 0.139581C3.0867 0.0382474 2.88616 0.000380848 2.88616 0.000380848L0.755498 0.000913888C0.755498 0.000913888 0.434965 -0.0161526 0.317098 0.117181C0.213098 0.236114 0.308565 0.431314 0.308565 0.431314C0.308565 0.431314 1.9251 4.30865 3.7683 6.23345C5.07123 7.59505 6.37736 8.00038 7.5811 8.00038H8.26803C8.63763 8.00038 8.80136 7.91505 8.80136 7.72465V7.71013C8.80132 7.18165 8.80128 6.5698 9.25736 6.43345C9.80563 6.26918 10.5859 7.21531 11.331 7.70332C11.788 8.00625 12.323 8.00038 12.323 8.00038H14.5203C14.5203 8.00038 15.563 7.90492 15.0686 7.12092Z" fill="white"/>
</svg>
